# xmcd
#
# Track frame offsets: 
#        150
#        22512
#        44487
#        61425
#        82825
#        100662
#        120387
#        135612
#        157562
#        182225
#        198687
#        218262
#        241725
#
# Disc length: 3503 seconds
#
# Revision: 4
# Processed by: cddbd v1.5.2PL0 Copyright (c) Steve Scherf et al.
# Submitted via: ExactAudioCopyFreeDBPlugin 1.0
#
DISCID=940dad0d
DTITLE=Pat Green - Three Days
DYEAR=2001
DGENRE=Country
TTITLE0=Carry On
TTITLE1=Threadbare Gypsy Soul
TTITLE2=Three Days
TTITLE3=Who's to Say
TTITLE4=Galleywinter
TTITLE5=Wrong Side of Town
TTITLE6=We've All Got Our Reasons
TTITLE7=Whiskey
TTITLE8=Crazy
TTITLE9=Take Me Out To A Dancehall
TTITLE10=Count Your Blessings
TTITLE11=Southbound 35
TTITLE12=Texas on My Mind
EXTD=YEAR: 2001 ID3G:   2
EXTT0=
EXTT1=
EXTT2=
EXTT3=
EXTT4=
EXTT5=
EXTT6=
EXTT7=
EXTT8=
EXTT9=
EXTT10=
EXTT11=
EXTT12=
PLAYORDER=
